# xmcd
#
# Track frame offsets:
# 150
# 14764
# 29913
# 44985
# 62553
# 77703
# 90749
# 109636
# 128560
# 147177
# 159884
# 173132
# 187593
# 204814
# 218439
# 234199
# 247343
# 262769
# 281421
# 298422
#
# Disc length: 4275 seconds
#
#
# Revision: 1
# Processed by: cddbd v1.5.1PL2 Copyright (c) Steve Scherf et al.
# Submitted via: FreeRIP 2.945 
#
DISCID=1810b114
DTITLE=Crystian and Ralf - As Melhores 2005
DYEAR=2005
DGENRE=Sertaneja
TTITLE0=Canalha
TTITLE1=Onde for eu vou
TTITLE2=Com voce
TTITLE3=Quem sera seu outro amor
TTITLE4=Escravo do amor
TTITLE5=A semente do amor
TTITLE6=Um cantinho do seu coracao
TTITLE7=O que tiver que vir, vira
TTITLE8=Entre ela e eu
TTITLE9=Quarto vizinho
TTITLE10=Vestido de seda
TTITLE11=Chora peito
TTITLE12=Ausencia
TTITLE13=Vira, virou
TTITLE14=Loucura demais
TTITLE15=Nas quebradas da noite
TTITLE16=Cheiro de Champu
TTITLE17=O amor nao e paixao
TTITLE18=Nova York
TTITLE19=Olhos de luar
EXTD=
EXTT0=
EXTT1=
EXTT2=
EXTT3=
EXTT4=
EXTT5=
EXTT6=
EXTT7=
EXTT8=
EXTT9=
EXTT10=
EXTT11=
EXTT12=
EXTT13=
EXTT14=
EXTT15=
EXTT16=
EXTT17=
EXTT18=
EXTT19=
PLAYORDER=
